<?xml version="1.0" encoding="UTF-8"?>
<svg version="1.1" xmlns="http://www.w3.org/2000/svg" width="152" height="152">
<path d="M0 0 C-0.96887155 4.55854066 -3.37844321 7.40652693 -6.20800781 11.05957031 C-6.61889648 11.59163086 -7.02978516 12.12369141 -7.453125 12.671875 C-7.87400391 13.21521484 -8.29488281 13.75855469 -8.72851562 14.31835938 C-10.00241555 16.00319476 -11.2173989 17.71812924 -12.421875 19.453125 C-12.81246094 20.00548828 -13.20304687 20.55785156 -13.60546875 21.12695312 C-14.69884926 22.67746371 -15.7794404 24.23696946 -16.859375 25.796875 C-19 28 -19 28 -21.44140625 28.53515625 C-24.63514308 27.86715328 -26.53457651 26.58020612 -29.1875 24.6875 C-41.23248883 16.66291121 -54.97738088 15.74494084 -68.96484375 18.23828125 C-74.9365492 19.73697181 -80.06940742 22.41262388 -84.8125 26.3125 C-87 28 -87 28 -89.359375 28.4140625 C-93.14992112 27.81968692 -94.12901658 26.06229397 -96.4375 23.0625 C-97.59958984 21.56203125 -97.59958984 21.56203125 -98.78515625 20.03125 C-101.19243753 16.7366287 -103.51326264 13.41053944 -105.7109375 9.97265625 C-106.97586925 7.93099512 -106.97586925 7.93099512 -108.7265625 6.05859375 C-110 4 -110 4 -109.96484375 1.51953125 C-106.87159395 -6.5579834 -96.58795247 -11.03229262 -89.125 -14.375 C-57.40224672 -27.84844973 -26.43864332 -20.81024867 0 0 Z " fill="#1C6FFF" transform="translate(132,100)"/>
<path d="M0 0 C3.53177798 0.71817364 5.64718755 1.93567304 8.59765625 3.9921875 C19.96160794 11.82606058 33.94446235 12.11865576 47.34765625 9.9921875 C53.69973743 8.503924 60.40530424 5.24703951 65.03515625 0.6171875 C67.890625 0.1953125 67.890625 0.1953125 71.03515625 0.6171875 C73.2734375 2.6015625 73.2734375 2.6015625 75.34765625 5.3671875 C76.10691406 6.36363281 76.86617188 7.36007813 77.6484375 8.38671875 C78.03725098 8.91475098 78.42606445 9.4427832 78.82666016 9.98681641 C80.05135826 11.63904548 81.3092623 13.26041433 82.578125 14.87890625 C89.44885592 23.74210878 89.44885592 23.74210878 90.03515625 27.6171875 C75.42410807 42.13748383 55.15882735 49.32898958 34.78515625 49.9296875 C17.93219431 49.58780164 2.36445942 44.39340028 -11.96484375 35.6171875 C-11.96484375 34.9571875 -11.96484375 34.2971875 -11.96484375 33.6171875 C-12.72796875 33.3490625 -13.49109375 33.0809375 -14.27734375 32.8046875 C-18.46136347 30.9559346 -18.46136347 30.9559346 -19.96484375 28.6171875 C-20.0810512 23.62026715 -17.90556932 20.81755254 -14.90625 17.1171875 C-13.3483184 15.11099791 -11.94547085 13.11189179 -10.5546875 10.9921875 C-10.12792725 10.35474609 -9.70116699 9.71730469 -9.26147461 9.06054688 C-8.40722005 7.78021053 -7.56770367 6.48989843 -6.74438477 5.18945312 C-4.71277872 2.19971151 -3.60529621 0.75050962 0 0 Z " fill="#1C6FFF" transform="translate(41.96484375,23.3828125)"/>
</svg>
